<mxfile host="Electron" agent="Mozilla/5.0 (X11; Linux x86_64) AppleWebKit/537.36 (KHTML, like Gecko) draw.io/26.1.1 Chrome/132.0.6834.210 Electron/34.3.3 Safari/537.36" version="26.1.1">
  <diagram name="PÃ¡gina-1" id="k1bs_HJvlZUTi6nMZtvN">
    <mxGraphModel dx="1434" dy="959" grid="1" gridSize="10" guides="1" tooltips="1" connect="1" arrows="1" fold="1" page="1" pageScale="1" pageWidth="827" pageHeight="1169" math="0" shadow="0">
      <root>
        <mxCell id="0" />
        <mxCell id="1" parent="0" />
        <mxCell id="2uv-KPz94uLlCZfEcH0p-2" value="&lt;div style=&quot;text-align: justify;&quot;&gt;&lt;span style=&quot;font-size: 60px; background-color: transparent; color: light-dark(rgb(0, 0, 0), rgb(255, 255, 255));&quot;&gt;&lt;b style=&quot;&quot;&gt;&lt;font face=&quot;Comic Sans MS&quot;&gt;a&lt;/font&gt;&lt;/b&gt;&lt;/span&gt;&lt;/div&gt;" style="rounded=0;whiteSpace=wrap;html=1;strokeWidth=2;portConstraintRotation=0;" parent="1" vertex="1">
          <mxGeometry x="280" y="160" width="280" height="160" as="geometry" />
        </mxCell>
        <mxCell id="2uv-KPz94uLlCZfEcH0p-3" value="&lt;div style=&quot;text-align: left; padding-bottom: 165px;&quot;&gt;&lt;span style=&quot;background-color: transparent; color: light-dark(rgb(0, 0, 0), rgb(255, 255, 255));&quot;&gt;&lt;font style=&quot;font-size: 25px;&quot; face=&quot;Comic Sans MS&quot;&gt;&lt;b style=&quot;&quot;&gt;gen&lt;/b&gt;&lt;/font&gt;&lt;/span&gt;&lt;/div&gt;&lt;div&gt;&lt;/div&gt;" style="rounded=0;whiteSpace=wrap;html=1;strokeWidth=2;portConstraintRotation=0;" parent="1" vertex="1">
          <mxGeometry x="120" y="160" width="80" height="200" as="geometry" />
        </mxCell>
        <mxCell id="2uv-KPz94uLlCZfEcH0p-4" value="&lt;div style=&quot;text-align: left; padding-bottom: 165px; padding-right: 0px; padding-left: 3px;&quot;&gt;&lt;b style=&quot;font-size: 25px; font-family: &amp;quot;Comic Sans MS&amp;quot;; background-color: transparent; color: light-dark(rgb(0, 0, 0), rgb(255, 255, 255));&quot;&gt;carga&lt;/b&gt;&lt;/div&gt;" style="rounded=0;whiteSpace=wrap;html=1;strokeWidth=2;portConstraintRotation=0;" parent="1" vertex="1">
          <mxGeometry x="640" y="160" width="80" height="200" as="geometry" />
        </mxCell>
        <mxCell id="2uv-KPz94uLlCZfEcH0p-5" value="&lt;font face=&quot;Comic Sans MS&quot; style=&quot;font-size: 50px;&quot;&gt;&lt;b style=&quot;&quot;&gt;f&lt;/b&gt;&lt;/font&gt;" style="rounded=0;whiteSpace=wrap;html=1;strokeWidth=2;portConstraintRotation=0;" parent="1" vertex="1">
          <mxGeometry x="320" y="400" width="200" height="120" as="geometry" />
        </mxCell>
        <mxCell id="2uv-KPz94uLlCZfEcH0p-6" value="" style="endArrow=none;html=1;rounded=0;strokeWidth=3;" parent="1" edge="1">
          <mxGeometry width="50" height="50" relative="1" as="geometry">
            <mxPoint x="160" y="480" as="sourcePoint" />
            <mxPoint x="160" y="320" as="targetPoint" />
          </mxGeometry>
        </mxCell>
        <mxCell id="2uv-KPz94uLlCZfEcH0p-7" value="" style="endArrow=none;html=1;rounded=0;entryX=0;entryY=0.667;entryDx=0;entryDy=0;entryPerimeter=0;strokeWidth=3;" parent="1" target="2uv-KPz94uLlCZfEcH0p-5" edge="1">
          <mxGeometry width="50" height="50" relative="1" as="geometry">
            <mxPoint x="160" y="480" as="sourcePoint" />
            <mxPoint x="210" y="390" as="targetPoint" />
          </mxGeometry>
        </mxCell>
        <mxCell id="2uv-KPz94uLlCZfEcH0p-8" value="" style="endArrow=none;html=1;rounded=0;strokeWidth=3;" parent="1" edge="1">
          <mxGeometry width="50" height="50" relative="1" as="geometry">
            <mxPoint x="520" y="480" as="sourcePoint" />
            <mxPoint x="680" y="480" as="targetPoint" />
          </mxGeometry>
        </mxCell>
        <mxCell id="2uv-KPz94uLlCZfEcH0p-9" value="" style="endArrow=none;html=1;rounded=0;strokeWidth=3;" parent="1" edge="1">
          <mxGeometry width="50" height="50" relative="1" as="geometry">
            <mxPoint x="600" y="270" as="sourcePoint" />
            <mxPoint x="600" y="200" as="targetPoint" />
            <Array as="points">
              <mxPoint x="600" y="260" />
            </Array>
          </mxGeometry>
        </mxCell>
        <mxCell id="2uv-KPz94uLlCZfEcH0p-10" value="" style="endArrow=none;html=1;rounded=0;entryX=0;entryY=0.25;entryDx=0;entryDy=0;strokeWidth=3;" parent="1" target="2uv-KPz94uLlCZfEcH0p-2" edge="1">
          <mxGeometry width="50" height="50" relative="1" as="geometry">
            <mxPoint x="180" y="200" as="sourcePoint" />
            <mxPoint x="250" y="150" as="targetPoint" />
          </mxGeometry>
        </mxCell>
        <mxCell id="2uv-KPz94uLlCZfEcH0p-11" value="" style="endArrow=none;html=1;rounded=0;strokeWidth=3;" parent="1" edge="1">
          <mxGeometry width="50" height="50" relative="1" as="geometry">
            <mxPoint x="560" y="200" as="sourcePoint" />
            <mxPoint x="680" y="200" as="targetPoint" />
          </mxGeometry>
        </mxCell>
        <mxCell id="2uv-KPz94uLlCZfEcH0p-13" value="" style="curved=1;endArrow=none;html=1;rounded=0;endFill=0;strokeWidth=3;" parent="1" edge="1">
          <mxGeometry width="50" height="50" relative="1" as="geometry">
            <mxPoint x="600" y="290" as="sourcePoint" />
            <mxPoint x="600" y="270" as="targetPoint" />
            <Array as="points">
              <mxPoint x="590" y="290" />
              <mxPoint x="590" y="270" />
            </Array>
          </mxGeometry>
        </mxCell>
        <mxCell id="2uv-KPz94uLlCZfEcH0p-14" value="" style="endArrow=none;html=1;rounded=0;strokeWidth=3;" parent="1" edge="1">
          <mxGeometry width="50" height="50" relative="1" as="geometry">
            <mxPoint x="600" y="440" as="sourcePoint" />
            <mxPoint x="600" y="290" as="targetPoint" />
            <Array as="points" />
          </mxGeometry>
        </mxCell>
        <mxCell id="2uv-KPz94uLlCZfEcH0p-15" value="" style="endArrow=none;html=1;rounded=0;exitX=1;exitY=0.75;exitDx=0;exitDy=0;strokeWidth=3;" parent="1" source="2uv-KPz94uLlCZfEcH0p-2" edge="1">
          <mxGeometry width="50" height="50" relative="1" as="geometry">
            <mxPoint x="590" y="330" as="sourcePoint" />
            <mxPoint x="640" y="280" as="targetPoint" />
          </mxGeometry>
        </mxCell>
        <mxCell id="2uv-KPz94uLlCZfEcH0p-16" value="" style="endArrow=none;html=1;rounded=0;entryX=1;entryY=0.5;entryDx=0;entryDy=0;entryPerimeter=0;strokeWidth=3;" parent="1" target="2uv-KPz94uLlCZfEcH0p-30" edge="1">
          <mxGeometry width="50" height="50" relative="1" as="geometry">
            <mxPoint x="680" y="480" as="sourcePoint" />
            <mxPoint x="680" y="320" as="targetPoint" />
          </mxGeometry>
        </mxCell>
        <mxCell id="2uv-KPz94uLlCZfEcH0p-17" value="" style="endArrow=none;html=1;rounded=0;strokeWidth=3;" parent="1" edge="1">
          <mxGeometry width="50" height="50" relative="1" as="geometry">
            <mxPoint x="520" y="440" as="sourcePoint" />
            <mxPoint x="600" y="440" as="targetPoint" />
          </mxGeometry>
        </mxCell>
        <mxCell id="2uv-KPz94uLlCZfEcH0p-18" value="" style="endArrow=none;html=1;rounded=0;strokeWidth=3;" parent="1" edge="1">
          <mxGeometry width="50" height="50" relative="1" as="geometry">
            <mxPoint x="240" y="280" as="sourcePoint" />
            <mxPoint x="280" y="280" as="targetPoint" />
          </mxGeometry>
        </mxCell>
        <mxCell id="2uv-KPz94uLlCZfEcH0p-19" value="" style="endArrow=none;html=1;rounded=0;strokeWidth=3;" parent="1" edge="1">
          <mxGeometry width="50" height="50" relative="1" as="geometry">
            <mxPoint x="240" y="440" as="sourcePoint" />
            <mxPoint x="240" y="280" as="targetPoint" />
          </mxGeometry>
        </mxCell>
        <mxCell id="2uv-KPz94uLlCZfEcH0p-20" value="" style="endArrow=none;html=1;rounded=0;strokeWidth=3;entryX=0.001;entryY=0.339;entryDx=0;entryDy=0;entryPerimeter=0;" parent="1" target="2uv-KPz94uLlCZfEcH0p-5" edge="1">
          <mxGeometry width="50" height="50" relative="1" as="geometry">
            <mxPoint x="240" y="440" as="sourcePoint" />
            <mxPoint x="320" y="439" as="targetPoint" />
          </mxGeometry>
        </mxCell>
        <mxCell id="2uv-KPz94uLlCZfEcH0p-27" value="" style="pointerEvents=1;verticalLabelPosition=bottom;shadow=0;dashed=0;align=center;html=1;verticalAlign=top;shape=mxgraph.electrical.resistors.resistor_2;direction=south;strokeWidth=3;portConstraintRotation=0;" parent="1" vertex="1">
          <mxGeometry x="150" y="250" width="20" height="80" as="geometry" />
        </mxCell>
        <mxCell id="2uv-KPz94uLlCZfEcH0p-28" value="" style="verticalLabelPosition=bottom;shadow=0;dashed=0;align=center;fillColor=strokeColor;html=1;verticalAlign=top;strokeWidth=3;shape=mxgraph.electrical.miscellaneous.monocell_battery;rotation=-90;portConstraintRotation=0;" parent="1" vertex="1">
          <mxGeometry x="130" y="210" width="60" height="40" as="geometry" />
        </mxCell>
        <mxCell id="2uv-KPz94uLlCZfEcH0p-29" value="" style="endArrow=none;html=1;rounded=0;strokeWidth=3;" parent="1" edge="1">
          <mxGeometry width="50" height="50" relative="1" as="geometry">
            <mxPoint x="160" y="200" as="sourcePoint" />
            <mxPoint x="200" y="200" as="targetPoint" />
          </mxGeometry>
        </mxCell>
        <mxCell id="2uv-KPz94uLlCZfEcH0p-30" value="" style="pointerEvents=1;verticalLabelPosition=bottom;shadow=0;dashed=0;align=center;html=1;verticalAlign=top;shape=mxgraph.electrical.resistors.resistor_2;direction=south;strokeWidth=3;portConstraintRotation=0;" parent="1" vertex="1">
          <mxGeometry x="670" y="230" width="20" height="80" as="geometry" />
        </mxCell>
        <mxCell id="2uv-KPz94uLlCZfEcH0p-31" value="" style="endArrow=none;html=1;rounded=0;strokeWidth=3;" parent="1" edge="1">
          <mxGeometry width="50" height="50" relative="1" as="geometry">
            <mxPoint x="680" y="240" as="sourcePoint" />
            <mxPoint x="680" y="200" as="targetPoint" />
          </mxGeometry>
        </mxCell>
        <mxCell id="2uv-KPz94uLlCZfEcH0p-36" value="" style="verticalLabelPosition=bottom;shadow=0;dashed=0;align=center;html=1;verticalAlign=top;shape=mxgraph.electrical.transistors.npn_transistor_5;portConstraintRotation=0;strokeWidth=3;" parent="1" vertex="1">
          <mxGeometry x="456" y="830" width="64" height="100" as="geometry" />
        </mxCell>
        <mxCell id="nO8EH26HLXB0lWey9M7f-1" value="" style="pointerEvents=1;verticalLabelPosition=bottom;shadow=0;dashed=0;align=center;html=1;verticalAlign=top;shape=mxgraph.electrical.resistors.resistor_2;direction=south;strokeWidth=3;portConstraintRotation=0;" parent="1" vertex="1">
          <mxGeometry x="510" y="1000" width="20" height="80" as="geometry" />
        </mxCell>
        <mxCell id="nO8EH26HLXB0lWey9M7f-2" value="" style="endArrow=none;html=1;rounded=0;entryX=1;entryY=1;entryDx=0;entryDy=0;entryPerimeter=0;strokeWidth=3;" parent="1" target="2uv-KPz94uLlCZfEcH0p-36" edge="1">
          <mxGeometry width="50" height="50" relative="1" as="geometry">
            <mxPoint x="520" y="1000" as="sourcePoint" />
            <mxPoint x="570" y="950" as="targetPoint" />
          </mxGeometry>
        </mxCell>
        <mxCell id="nO8EH26HLXB0lWey9M7f-3" value="" style="pointerEvents=1;verticalLabelPosition=bottom;shadow=0;dashed=0;align=center;html=1;verticalAlign=top;shape=mxgraph.electrical.resistors.resistor_2;direction=west;strokeWidth=3;portConstraintRotation=0;" parent="1" vertex="1">
          <mxGeometry x="400" y="950" width="80" height="20" as="geometry" />
        </mxCell>
        <mxCell id="nO8EH26HLXB0lWey9M7f-4" value="" style="pointerEvents=1;verticalLabelPosition=bottom;shadow=0;dashed=0;align=center;html=1;verticalAlign=top;shape=mxgraph.electrical.resistors.resistor_2;direction=south;strokeWidth=3;portConstraintRotation=0;" parent="1" vertex="1">
          <mxGeometry x="350" y="1000" width="20" height="80" as="geometry" />
        </mxCell>
        <mxCell id="nO8EH26HLXB0lWey9M7f-5" value="" style="endArrow=none;html=1;rounded=0;strokeWidth=3;" parent="1" edge="1">
          <mxGeometry width="50" height="50" relative="1" as="geometry">
            <mxPoint x="330" y="960" as="sourcePoint" />
            <mxPoint x="400" y="960" as="targetPoint" />
          </mxGeometry>
        </mxCell>
        <mxCell id="nO8EH26HLXB0lWey9M7f-6" value="" style="endArrow=none;html=1;rounded=0;strokeWidth=3;" parent="1" edge="1">
          <mxGeometry width="50" height="50" relative="1" as="geometry">
            <mxPoint x="360" y="1000" as="sourcePoint" />
            <mxPoint x="360" y="960" as="targetPoint" />
          </mxGeometry>
        </mxCell>
        <mxCell id="nO8EH26HLXB0lWey9M7f-7" value="" style="endArrow=none;html=1;rounded=0;exitX=0;exitY=0.5;exitDx=0;exitDy=0;exitPerimeter=0;strokeWidth=3;" parent="1" source="nO8EH26HLXB0lWey9M7f-3" edge="1">
          <mxGeometry width="50" height="50" relative="1" as="geometry">
            <mxPoint x="470" y="1010" as="sourcePoint" />
            <mxPoint x="520" y="960" as="targetPoint" />
          </mxGeometry>
        </mxCell>
        <mxCell id="nO8EH26HLXB0lWey9M7f-11" value="" style="verticalLabelPosition=bottom;shadow=0;dashed=0;align=center;html=1;verticalAlign=top;shape=mxgraph.electrical.transistors.npn_transistor_5;portConstraintRotation=0;rotation=-180;strokeWidth=3;" parent="1" vertex="1">
          <mxGeometry x="280" y="910" width="64" height="100" as="geometry" />
        </mxCell>
        <mxCell id="nO8EH26HLXB0lWey9M7f-12" value="" style="pointerEvents=1;verticalLabelPosition=bottom;shadow=0;dashed=0;align=center;html=1;verticalAlign=top;shape=mxgraph.electrical.resistors.resistor_2;direction=south;strokeWidth=3;portConstraintRotation=0;" parent="1" vertex="1">
          <mxGeometry x="270" y="760" width="20" height="80" as="geometry" />
        </mxCell>
        <mxCell id="nO8EH26HLXB0lWey9M7f-14" value="" style="endArrow=none;html=1;rounded=0;strokeWidth=3;" parent="1" edge="1">
          <mxGeometry width="50" height="50" relative="1" as="geometry">
            <mxPoint x="280" y="880" as="sourcePoint" />
            <mxPoint x="464" y="880" as="targetPoint" />
          </mxGeometry>
        </mxCell>
        <mxCell id="nO8EH26HLXB0lWey9M7f-15" value="" style="endArrow=none;html=1;rounded=0;exitX=1;exitY=1;exitDx=0;exitDy=0;exitPerimeter=0;strokeWidth=3;" parent="1" source="nO8EH26HLXB0lWey9M7f-11" edge="1">
          <mxGeometry width="50" height="50" relative="1" as="geometry">
            <mxPoint x="230" y="890" as="sourcePoint" />
            <mxPoint x="280" y="840" as="targetPoint" />
          </mxGeometry>
        </mxCell>
        <mxCell id="nO8EH26HLXB0lWey9M7f-16" value="" style="endArrow=none;html=1;rounded=0;strokeWidth=3;" parent="1" edge="1">
          <mxGeometry width="50" height="50" relative="1" as="geometry">
            <mxPoint x="520" y="840" as="sourcePoint" />
            <mxPoint x="520" y="760" as="targetPoint" />
          </mxGeometry>
        </mxCell>
        <mxCell id="nO8EH26HLXB0lWey9M7f-17" value="" style="endArrow=none;html=1;rounded=0;strokeWidth=3;" parent="1" edge="1">
          <mxGeometry width="50" height="50" relative="1" as="geometry">
            <mxPoint x="200" y="760" as="sourcePoint" />
            <mxPoint x="520" y="760" as="targetPoint" />
          </mxGeometry>
        </mxCell>
        <mxCell id="nO8EH26HLXB0lWey9M7f-18" value="" style="verticalLabelPosition=bottom;shadow=0;dashed=0;align=center;fillColor=strokeColor;html=1;verticalAlign=top;strokeWidth=3;shape=mxgraph.electrical.miscellaneous.monocell_battery;rotation=-90;portConstraintRotation=0;" parent="1" vertex="1">
          <mxGeometry x="170" y="770" width="60" height="40" as="geometry" />
        </mxCell>
        <mxCell id="nO8EH26HLXB0lWey9M7f-19" value="" style="pointerEvents=1;verticalLabelPosition=bottom;shadow=0;dashed=0;align=center;html=1;verticalAlign=top;shape=mxgraph.electrical.signal_sources.signal_ground;strokeWidth=3;" parent="1" vertex="1">
          <mxGeometry x="417.5" y="1080" width="45" height="30" as="geometry" />
        </mxCell>
        <mxCell id="nO8EH26HLXB0lWey9M7f-20" value="" style="pointerEvents=1;verticalLabelPosition=bottom;shadow=0;dashed=0;align=center;html=1;verticalAlign=top;shape=mxgraph.electrical.signal_sources.signal_ground;strokeWidth=3;" parent="1" vertex="1">
          <mxGeometry x="177.5" y="820" width="45" height="30" as="geometry" />
        </mxCell>
        <mxCell id="nO8EH26HLXB0lWey9M7f-21" value="" style="verticalLabelPosition=bottom;shadow=0;dashed=0;align=center;fillColor=strokeColor;html=1;verticalAlign=top;strokeWidth=3;shape=mxgraph.electrical.miscellaneous.monocell_battery;rotation=-90;portConstraintRotation=0;" parent="1" vertex="1">
          <mxGeometry x="250" y="1020" width="60" height="40" as="geometry" />
        </mxCell>
        <mxCell id="nO8EH26HLXB0lWey9M7f-22" value="" style="endArrow=none;html=1;rounded=0;entryX=1;entryY=0.5;entryDx=0;entryDy=0;entryPerimeter=0;strokeWidth=3;" parent="1" target="nO8EH26HLXB0lWey9M7f-1" edge="1">
          <mxGeometry width="50" height="50" relative="1" as="geometry">
            <mxPoint x="280" y="1080" as="sourcePoint" />
            <mxPoint x="330" y="1030" as="targetPoint" />
          </mxGeometry>
        </mxCell>
        <mxCell id="nO8EH26HLXB0lWey9M7f-23" value="" style="endArrow=none;html=1;rounded=0;strokeWidth=3;" parent="1" edge="1">
          <mxGeometry width="50" height="50" relative="1" as="geometry">
            <mxPoint x="280" y="1080" as="sourcePoint" />
            <mxPoint x="280" y="1060" as="targetPoint" />
          </mxGeometry>
        </mxCell>
        <mxCell id="nO8EH26HLXB0lWey9M7f-24" value="&lt;font face=&quot;Comic Sans MS&quot;&gt;Q1&lt;/font&gt;" style="rounded=0;whiteSpace=wrap;html=1;fillColor=none;strokeColor=none;fontStyle=1" parent="1" vertex="1">
          <mxGeometry x="500" y="870" width="30" height="20" as="geometry" />
        </mxCell>
        <mxCell id="nO8EH26HLXB0lWey9M7f-25" value="&lt;font face=&quot;Comic Sans MS&quot;&gt;Q2&lt;/font&gt;" style="rounded=0;whiteSpace=wrap;html=1;fillColor=none;strokeColor=none;fontStyle=1" parent="1" vertex="1">
          <mxGeometry x="270" y="950" width="30" height="20" as="geometry" />
        </mxCell>
        <mxCell id="nO8EH26HLXB0lWey9M7f-26" value="&lt;font face=&quot;Comic Sans MS&quot;&gt;Vin&lt;/font&gt;" style="rounded=0;whiteSpace=wrap;html=1;fillColor=none;strokeColor=none;fontStyle=1" parent="1" vertex="1">
          <mxGeometry x="150" y="775" width="30" height="30" as="geometry" />
        </mxCell>
        <mxCell id="nO8EH26HLXB0lWey9M7f-27" value="&lt;font face=&quot;Comic Sans MS&quot;&gt;R1&lt;/font&gt;" style="rounded=0;whiteSpace=wrap;html=1;fillColor=none;strokeColor=none;fontStyle=1" parent="1" vertex="1">
          <mxGeometry x="296.5" y="785" width="23" height="15" as="geometry" />
        </mxCell>
        <mxCell id="nO8EH26HLXB0lWey9M7f-28" value="&lt;font face=&quot;Comic Sans MS&quot;&gt;Rf2&lt;/font&gt;" style="rounded=0;whiteSpace=wrap;html=1;fillColor=none;strokeColor=none;fontStyle=1" parent="1" vertex="1">
          <mxGeometry x="427.5" y="910" width="25" height="20" as="geometry" />
        </mxCell>
        <mxCell id="nO8EH26HLXB0lWey9M7f-29" value="&lt;font face=&quot;Comic Sans MS&quot;&gt;Rf1&lt;/font&gt;" style="rounded=0;whiteSpace=wrap;html=1;fillColor=none;strokeColor=none;fontStyle=1" parent="1" vertex="1">
          <mxGeometry x="380" y="1025" width="20" height="20" as="geometry" />
        </mxCell>
        <mxCell id="nO8EH26HLXB0lWey9M7f-30" value="&lt;font face=&quot;Comic Sans MS&quot;&gt;RL&lt;/font&gt;" style="rounded=0;whiteSpace=wrap;html=1;fillColor=none;strokeColor=none;fontStyle=1" parent="1" vertex="1">
          <mxGeometry x="530" y="1025" width="30" height="30" as="geometry" />
        </mxCell>
        <mxCell id="nO8EH26HLXB0lWey9M7f-31" value="&lt;font face=&quot;Comic Sans MS&quot;&gt;V2&lt;/font&gt;" style="rounded=0;whiteSpace=wrap;html=1;fillColor=none;strokeColor=none;fontStyle=1" parent="1" vertex="1">
          <mxGeometry x="230" y="1025" width="30" height="30" as="geometry" />
        </mxCell>
        <mxCell id="nO8EH26HLXB0lWey9M7f-32" value="&lt;font face=&quot;Comic Sans MS&quot;&gt;3kÎ©&lt;/font&gt;" style="rounded=0;whiteSpace=wrap;html=1;fillColor=none;strokeColor=none;fontStyle=1" parent="1" vertex="1">
          <mxGeometry x="427.5" y="930" width="25" height="10" as="geometry" />
        </mxCell>
        <mxCell id="nO8EH26HLXB0lWey9M7f-33" value="&lt;font face=&quot;Comic Sans MS&quot;&gt;2kÎ©&lt;/font&gt;" style="rounded=0;whiteSpace=wrap;html=1;fillColor=none;strokeColor=none;fontStyle=1" parent="1" vertex="1">
          <mxGeometry x="380" y="1040" width="20" height="20" as="geometry" />
        </mxCell>
        <mxCell id="nO8EH26HLXB0lWey9M7f-34" value="&lt;font face=&quot;Comic Sans MS&quot;&gt;5kÎ©&lt;/font&gt;" style="rounded=0;whiteSpace=wrap;html=1;fillColor=none;strokeColor=none;fontStyle=1" parent="1" vertex="1">
          <mxGeometry x="296.5" y="800" width="23.5" height="20" as="geometry" />
        </mxCell>
      </root>
    </mxGraphModel>
  </diagram>
</mxfile>
